HIERARCHY
ROOT Hips
{
  OFFSET 55.6936 97.1996 -10.3136
  CHANNELS 6 Xposition Yposition Zposition Zrotation Xrotation Yrotation
  JOINT spine
  {
    OFFSET 0 7.96568 0.458067
    CHANNELS 3 Zrotation Xrotation Yrotation
    JOINT spine1
    {
      OFFSET 0 10.2431 0
      CHANNELS 3 Zrotation Xrotation Yrotation
      JOINT spine2
      {
        OFFSET 0 9.81475 0
        CHANNELS 3 Zrotation Xrotation Yrotation
        JOINT Neck
        {
          OFFSET 0 25.1986 1.20138
          CHANNELS 3 Zrotation Xrotation Yrotation
          JOINT Head
          {
            OFFSET 0 7.61315 0
            CHANNELS 3 Zrotation Xrotation Yrotation
            End Site
            {
              OFFSET 0 18.4281 -6.07733
            }
          }
        }
        JOINT RightShoulder
        {
          OFFSET -4.1327 10.5992 -0.575451
          CHANNELS 3 Zrotation Xrotation Yrotation
          JOINT RightArm
          {
            OFFSET 0 13.9018 0
            CHANNELS 3 Zrotation Xrotation Yrotation
            JOINT RightArmRoll
            {
              OFFSET 0 7.01789 0
              CHANNELS 3 Zrotation Xrotation Yrotation
              JOINT RightForeArm
              {
                OFFSET 0 20.4406 0
                CHANNELS 3 Zrotation Xrotation Yrotation
                JOINT RightForeArmRoll
                {
                  OFFSET 0 7.87515 0
                  CHANNELS 3 Zrotation Xrotation Yrotation
                  JOINT RightHand
                  {
                    OFFSET 0 15.8037 0
                    CHANNELS 3 Zrotation Xrotation Yrotation
                    End Site
                    {
                      OFFSET 0 0 0
                    }
                  }
                }
              }
            }
          }
        }
        JOINT LeftShoulder
        {
          OFFSET 4.1327 10.5992 -0.575451
          CHANNELS 3 Zrotation Xrotation Yrotation
          JOINT LeftArm
          {
            OFFSET 0 13.9018 0
            CHANNELS 3 Zrotation Xrotation Yrotation
            JOINT LeftArmRoll
            {
              OFFSET 0 7.01789 0
              CHANNELS 3 Zrotation Xrotation Yrotation
              JOINT LeftForeArm
              {
                OFFSET 0 20.4406 0
                CHANNELS 3 Zrotation Xrotation Yrotation
                JOINT LeftForeArmRoll
                {
                  OFFSET 0 7.87516 0
                  CHANNELS 3 Zrotation Xrotation Yrotation
                  JOINT LeftHand
                  {
                    OFFSET 0 15.8037 0
                    CHANNELS 3 Zrotation Xrotation Yrotation
                    End Site
                    {
                      OFFSET 0 0 0
                    }
                  }
                }
              }
            }
          }
        }
      }
    }
  }
  JOINT RightUpLeg
  {
    OFFSET -7.06048 -1.2947 -1.0861
    CHANNELS 3 Zrotation Xrotation Yrotation
    JOINT RightUpLegRoll
    {
      OFFSET 0 18.5308 0
      CHANNELS 3 Zrotation Xrotation Yrotation
      JOINT RightLeg
      {
        OFFSET 0 -22.9476 0
        CHANNELS 3 Zrotation Xrotation Yrotation
        JOINT RightLegRoll
        {
          OFFSET 0 23.0226 0
          CHANNELS 3 Zrotation Xrotation Yrotation
          JOINT RightFoot
          {
            OFFSET 0 19.1625 0
            CHANNELS 3 Zrotation Xrotation Yrotation
            JOINT RightToeBase
            {
              OFFSET 0 16.0188 0
              CHANNELS 3 Zrotation Xrotation Yrotation
              End Site
              {
                OFFSET 0.00678979 7.75782 -0.894206
              }
            }
          }
        }
      }
    }
  }
  JOINT LeftUpLeg
  {
    OFFSET 7.06048 -1.2947 -1.0861
    CHANNELS 3 Zrotation Xrotation Yrotation
    JOINT LeftUpLegRoll
    {
      OFFSET 0 18.5309 0
      CHANNELS 3 Zrotation Xrotation Yrotation
      JOINT LeftLeg
      {
        OFFSET 0 22.9475 0
        CHANNELS 3 Zrotation Xrotation Yrotation
        JOINT LeftLegRoll
        {
          OFFSET 0 23.2355 0
          CHANNELS 3 Zrotation Xrotation Yrotation
          JOINT LeftFoot
          {
            OFFSET 0 18.9496 0
            CHANNELS 3 Zrotation Xrotation Yrotation
            JOINT LeftToeBase
            {
              OFFSET 0 16.0188 0
              CHANNELS 3 Zrotation Xrotation Yrotation
              End Site
              {
                OFFSET -0.0304289 7.75782 -0.894206
              }
            }
          }
        }
      }
    }
  }
}
MOTION
Frames: 5
Frame Time: 0.00208333
58.307 106.966 -5.7045 0.0669613 0.786852 14.4954 -0.0238727 -0.407992 -0.452548 -0.0465463 3.18708 -0.902075 -0.0357606 4.83206 -0.90215 10.3485 -2.54607 -1.02884 -5.60173 15.9314 0.591753 62.4052 -11.619 -7.18574 59.8123 -8.22205 54.3698 -3.0844e-006 -4.28115e-006 6.13566e-006 -5.44286 79.4514 6.87824 1.78767e-006 -3.83516e-006 -3.00096 8.02957 -4.9509 0.697286 -46.2201 -5.96538 2.9878 -80.4684 14.1198 -39.812 1.75851e-005 -2.03059e-006 -3.13236e-007 12.3557 40.3554 -5.16683 9.55409e-007 -1.21131e-007 3.00384 -8.02888 -4.95163 -0.697778 169.9 3.79896 3.72059 180 7.01447e-015 178.553 -176.685 12.1154 178.892 1.13523e-006 -4.47681e-006 -0.257995 -16.6761 64.5788 17.0546 8.14233 25.2323 -3.49022 -167.989 10.5879 -5.24928 4.5067e-006 -1.99009e-005 -1.14797 -0.444961 -20.2598 0.456883 6.49147e-006 -5.45111e-006 -0.308727 18.7344 67.9312 -19.4749 -8.1365 25.2327 3.48774 
58.3157 107.066 -5.70574 0.0391929 0.782183 14.4438 -0.0232905 -0.393641 -0.451306 -0.0452859 3.21577 -0.899666 -0.0345275 4.86076 -0.899766 10.3033 -2.78226 -1.02858 -5.45364 16.0359 0.565898 62.9044 -11.5238 -7.12293 60.0611 -7.96985 54.2427 -3.0844e-006 -4.28115e-006 6.13566e-006 -5.76576 78.6533 7.0427 1.78767e-006 -3.83516e-006 -3.00096 8.02957 -4.9509 0.697286 -46.4555 -5.96107 2.99623 -80.771 14.0945 -39.4522 1.75851e-005 -2.03059e-006 -3.13236e-007 12.1831 39.7436 -4.97084 9.55409e-007 -1.21131e-007 3.00384 -8.02888 -4.95163 -0.697778 170.077 3.93702 3.68281 180 7.01451e-015 178.564 -176.775 12.2944 178.89 1.13523e-006 -4.47681e-006 -0.238213 -16.7172 64.6653 17.1098 8.14242 25.2323 -3.49026 -168.162 10.5812 -5.16677 4.5067e-006 -1.99009e-005 -1.14962 -0.472986 -20.3639 0.454493 6.49147e-006 -5.45111e-006 -0.309947 18.7284 67.9255 -19.4691 -8.1365 25.2327 3.48774 
58.313 107.106 -5.70711 0.00712912 0.782816 14.3869 -0.0216038 -0.381729 -0.451521 -0.0418261 3.23958 -0.900308 -0.0310554 4.88456 -0.900471 10.2275 -2.99714 -1.02238 -5.28318 16.1289 0.542724 63.3785 -11.42 -7.0565 60.3203 -7.71565 54.0979 -3.0844e-006 -4.28115e-006 6.13566e-006 -6.03577 77.8445 7.15414 1.78767e-006 -3.83516e-006 -3.00096 8.02957 -4.9509 0.697286 -46.7085 -5.96889 3.01441 -81.0537 14.0708 -39.0951 1.75851e-005 -2.03059e-006 -3.13236e-007 12.0109 39.105 -4.77618 9.55409e-007 -1.21131e-007 3.00384 -8.02888 -4.95163 -0.697778 170.258 4.0813 3.64225 180 7.01454e-015 178.576 -176.866 12.4724 178.888 1.13523e-006 -4.47681e-006 -0.21915 -16.756 64.7479 17.163 8.1425 25.2323 -3.49029 -168.327 10.5825 -5.09178 4.5067e-006 -1.99009e-005 -1.15071 -0.50547 -20.466 0.45105 6.49147e-006 -5.45111e-006 -0.311243 18.7245 67.9226 -19.4659 -8.1365 25.2327 3.48774 
58.328 107.201 -5.70507 -0.0301628 0.789523 14.3243 -0.0185851 -0.372633 -0.453383 -0.0357116 3.25774 -0.904401 -0.0248836 4.90272 -0.904674 10.1179 -3.18782 -1.0098 -5.08812 16.2087 0.522429 63.8244 -11.3066 -6.98587 60.5925 -7.46075 53.9326 -3.0844e-006 -4.28115e-006 6.13566e-006 -6.25912 77.0263 7.21879 1.78767e-006 -3.83516e-006 -3.00096 8.02957 -4.9509 0.697286 -46.9807 -5.99042 3.04356 -81.3155 14.0485 -38.7404 1.75851e-005 -2.03059e-006 -3.13236e-007 11.8401 38.4348 -4.58305 9.55409e-007 -1.21131e-007 3.00384 -8.02888 -4.95163 -0.697778 170.447 4.23244 3.5982 180 7.01457e-015 178.587 -176.959 12.6489 178.888 1.13523e-006 -4.47681e-006 -0.200863 -16.7919 64.8261 17.2138 8.14258 25.2323 -3.49033 -168.482 10.5932 -5.02529 4.5067e-006 -1.99009e-005 -1.1512 -0.542689 -20.5658 0.446458 6.49147e-006 -5.45111e-006 -0.312614 18.7229 67.9228 -19.4656 -8.1365 25.2327 3.48774 
58.3293 107.268 -5.75793 -0.0709979 0.802766 14.2547 -0.0143769 -0.3663 -0.457277 -0.0272243 3.27036 -0.912704 -0.0162855 4.91535 -0.913129 9.96001 -3.35373 -0.988452 -4.85344 16.2742 0.504835 64.2397 -11.1817 -6.91014 60.8806 -7.1972 53.7509 -3.0844e-006 -4.28115e-006 6.13566e-006 -6.46009 76.1947 7.2591 1.78767e-006 -3.83516e-006 -3.00096 8.02957 -4.9509 0.697286 -47.2817 -6.02786 3.08587 -81.5469 14.0291 -38.3931 1.75851e-005 -2.03059e-006 -3.13236e-007 11.6696 37.7295 -4.38878 9.55409e-007 -1.21131e-007 3.00384 -8.02888 -4.95163 -0.697778 170.639 4.3922 3.55308 180 7.01461e-015 178.598 -177.056 12.8256 178.889 1.13523e-006 -4.47681e-006 -0.183316 -16.8253 64.8998 17.2622 8.14266 25.2323 -3.49036 -168.629 10.6117 -4.96784 4.5067e-006 -1.99009e-005 -1.151 -0.5871 -20.6644 0.44031 6.49147e-006 -5.45111e-006 -0.314121 18.7242 67.927 -19.4686 -8.1365 25.2327 3.48774 
